Coordinates
version=1
nRows=11
nColumns=40
inDegrees=yes

Units are S.I. units (second, meters, Newtons, ...)
If the header above contains a line with 'inDegrees', this indicates whether rotational values are in degrees (yes) or radians (no).

endheader
time	pelvis_tilt	pelvis_list	pelvis_rotation	pelvis_tx	pelvis_ty	pelvis_tz	hip_flexion_r	hip_adduction_r	hip_rotation_r	knee_angle_r	knee_angle_r_beta	ankle_angle_r	subtalar_angle_r	mtp_angle_r	hip_flexion_l	hip_adduction_l	hip_rotation_l	knee_angle_l	knee_angle_l_beta	ankle_angle_l	subtalar_angle_l	mtp_angle_l	lumbar_extension	lumbar_bending	lumbar_rotation	arm_flex_r	arm_add_r	arm_rot_r	elbow_flex_r	pro_sup_r	wrist_flex_r	wrist_dev_r	arm_flex_l	arm_add_l	arm_rot_l	elbow_flex_l	pro_sup_l	wrist_flex_l	wrist_dev_l
      1.36000000	      3.40316561	     -3.79441697	      0.45310472	      0.18043944	      0.43617348	     -1.22625488	     89.19273558	    -49.26659112	     25.33949319	    123.28316893	      2.15169721	     33.50454822	     25.82601465	      0.00000000	     99.83336583	    -47.36440617	     33.93384226	    126.75189243	      2.21223786	     35.51569608	     25.75054375	      0.00000000	    -46.56459773	      4.79610808	     -3.67784214	     44.99992334	    -14.99999999	     44.99992334	     75.00017585	     45.00000026	      0.00000000	      0.00000000	     44.99992334	    -14.99999999	     44.99992334	     75.00017585	     45.00000026	      0.00000000	      0.00000000
      1.36500000	      3.48740981	     -4.06830866	      0.52329314	      0.18049915	      0.43569360	     -1.22668495	     88.75856790	    -49.30992604	     24.93494120	    123.33811284	      2.15265616	     33.69616978	     25.65306456	      0.00000000	    100.18356069	    -47.20357870	     34.50063664	    126.84220089	      2.21381404	     35.49537502	     25.78322755	      0.00000000	    -46.62967869	      5.00392526	     -3.81986616	     44.99992344	    -14.99999999	     44.99992344	     75.00017585	     45.00000026	      0.00000000	      0.00000000	     44.99992344	    -14.99999999	     44.99992344	     75.00017585	     45.00000026	      0.00000000	      0.00000000
      1.37000000	      3.66594531	     -4.17606570	      0.54179928	      0.18050880	      0.43551975	     -1.22686303	     88.45026679	    -49.32702027	     24.80339830	    123.37704624	      2.15333568	     33.75902265	     25.67977991	      0.00000000	    100.18318301	    -47.17658562	     34.76021078	    126.90655781	      2.21493728	     35.54691712	     25.87536198	      0.00000000	    -46.85850820	      5.05806055	     -3.74932155	     44.99992353	    -14.99999999	     44.99992353	     75.00017585	     45.00000026	      0.00000000	      0.00000000	     44.99992353	    -14.99999999	     44.99992353	     75.00017585	     45.00000026	      0.00000000	      0.00000000
      1.37500000	      4.13575531	     -3.99566832	      0.49540166	      0.18047402	      0.43619799	     -1.22664941	     88.14004479	    -49.32335989	     25.11134414	    123.38564930	      2.15348583	     33.79236100	     25.86997359	      0.00000000	     99.39161445	    -47.41104337	     34.43721144	    126.90993408	      2.21499620	     35.61828228	     26.05685470	      0.00000000	    -47.44892103	      4.89483910	     -3.64565846	     44.99992362	    -14.99999999	     44.99992362	     75.00017585	     45.00000026	      0.00000000	      0.00000000	     44.99992362	    -14.99999999	     44.99992362	     75.00017585	     45.00000026	      0.00000000	      0.00000000
      1.38000000	      3.94290925	     -3.99275022	      0.46809332	      0.18062558	      0.43486927	     -1.22670309	     88.62644027	    -49.29139461	     25.36564654	    123.50268047	      2.15552841	     33.73791417	     25.92269350	      0.00000000	     99.78297215	    -47.32315828	     34.62928974	    127.05624606	      2.21754983	     35.68025220	     25.94529651	      0.00000000	    -47.14374467	      4.91520750	     -3.64691438	     44.99992370	    -14.99999999	     44.99992370	     75.00017585	     45.00000026	      0.00000000	      0.00000000	     44.99992370	    -14.99999999	     44.99992370	     75.00017585	     45.00000026	      0.00000000	      0.00000000
      1.38500000	      3.98856674	     -4.14978428	      0.52086976	      0.18065331	      0.43433612	     -1.22701556	     88.43566463	    -49.32105230	     25.19871615	    123.55503201	      2.15644212	     33.81114953	     25.91564229	      0.00000000	    100.03458653	    -47.20216183	     34.99032508	    127.14680513	      2.21913038	     35.68995107	     25.94762389	      0.00000000	    -47.21613632	      5.05781870	     -3.73515879	     44.99992377	    -14.99999999	     44.99992377	     75.00017585	     45.00000026	      0.00000000	      0.00000000	     44.99992377	    -14.99999999	     44.99992377	     75.00017585	     45.00000026	      0.00000000	      0.00000000
      1.39000000	      4.09386694	     -4.19521612	      0.52941635	      0.18069945	      0.43399457	     -1.22713216	     88.33167166	    -49.32712840	     25.21377329	    123.60457888	      2.15730687	     33.84647637	     25.94084386	      0.00000000	    100.05617788	    -47.18852437	     35.15331824	    127.22357548	      2.22047028	     35.72009003	     26.00450030	      0.00000000	    -47.34390245	      5.11401688	     -3.69090111	     44.99992383	    -14.99999999	     44.99992383	     75.00017585	     45.00000026	      0.00000000	      0.00000000	     44.99992383	    -14.99999999	     44.99992383	     75.00017585	     45.00000026	      0.00000000	      0.00000000
      1.39500000	      4.55514732	     -4.33111199	      0.53278919	      0.18061380	      0.43483127	     -1.22729308	     87.49997040	    -49.34337166	     24.87384380	    123.55883390	      2.15650847	     33.99936647	     25.97047851	      0.00000000	     99.68436770	    -47.31527302	     35.34573669	    127.21070031	      2.22024556	     35.76346405	     26.25664521	      0.00000000	    -47.99676608	      5.16319359	     -3.63791347	     44.99992389	    -14.99999999	     44.99992389	     75.00017585	     45.00000026	      0.00000000	      0.00000000	     44.99992389	    -14.99999999	     44.99992389	     75.00017585	     45.00000026	      0.00000000	      0.00000000
      1.40000000	      4.50853242	     -4.51773618	      0.57073477	      0.18069634	      0.43410705	     -1.22760465	     87.41090097	    -49.37323116	     24.65658068	    123.61749230	      2.15753225	     33.90739123	     25.96628877	      0.00000000	    100.11723716	    -47.19054928	     35.77992310	    127.30615477	      2.22191156	     35.70921684	     26.27089510	      0.00000000	    -47.93577786	      5.40250047	     -3.58082434	     44.99992391	    -14.99999999	     44.99992391	     75.00017585	     45.00000026	      0.00000000	      0.00000000	     44.99992391	    -14.99999999	     44.99992391	     75.00017585	     45.00000026	      0.00000000	      0.00000000
      1.40500000	      4.47543491	     -4.47776213	      0.57334536	      0.18075031	      0.43330975	     -1.22768904	     87.66633164	    -49.36130743	     24.91752460	    123.69805202	      2.15893829	     33.94068039	     26.02824822	      0.00000000	    100.21092801	    -47.13240747	     35.83971490	    127.42051186	      2.22390747	     35.77280074	     26.20324583	      0.00000000	    -47.82864603	      5.46250103	     -3.46822226	     44.99992393	    -14.99999999	     44.99992393	     75.00017585	     45.00000026	      0.00000000	      0.00000000	     44.99992393	    -14.99999999	     44.99992393	     75.00017585	     45.00000026	      0.00000000	      0.00000000
      1.41000000	      4.48190690	     -4.38163947	      0.56120001	      0.18079598	      0.43267657	     -1.22766893	     87.93843758	    -49.34942452	     25.24293003	    123.77995223	      2.16036771	     33.96245740	     26.04437767	      0.00000000	    100.17987056	    -47.13275159	     35.78820084	    127.50885657	      2.22544937	     35.83144704	     26.20791332	      0.00000000	    -47.80129846	      5.40849123	     -3.37979346	     44.99992395	    -14.99999999	     44.99992395	     75.00017585	     45.00000026	      0.00000000	      0.00000000	     44.99992395	    -14.99999999	     44.99992395	     75.00017585	     45.00000026	      0.00000000	      0.00000000
